<?xml version="1.0"?>
<svg version="1.1" xmlns="http://www.w3.org/2000/svg" width="280" height="140" style=""><path fill="#000000" d="M53.5,58.3c20,0,31.5,13.2,31.5,35.5c0,22.5-13.5,37.5-33.5,37.5s-31-12.5-31-36c0-23,12.7-37,33-37z M53,70.8c-10,0-15.5,6.2-15.5,24c0,16.5,4.5,24,14.5,24s16-6.5,16-24.5c0-16.5-5-23.5-15-23.5z M108.951,118.5l0-47l-7.5-3l0-8.5l23-0.5l9.5,0c20,0,31.8,11.8,31.8,34.3s-13,36.2-33.3,36.2l-31,0l0-8.5z M124.451,118l8.3,0c9.7,0,16.2-5.7,16.2-23.7c0-16.8-5.7-22.8-15.5-22.8l-9,0l0,46.5z M252.002,121.5l0,8.5l-31.8,0l0-8.5l7.5-2.7l-2.4-7.3l-22.2,0l-2.5,7.2l7.8,2.8l0,8.5l-30.2,0l0-8.5l7.3-2.8l22-58.9l16-0.3l21.5,59.2z M222.002,100.8l-7.5-23.7l-7.9,23.7l15.4,0z"/><path fill="#" d=""/></svg>
